PathFileType	4	(X/Y/Z)	/home/utkubuntu/opensim/opensim_mycode/release_code/bioimitation/imitation_envs/data/02905/02905_PRE/experimental_data/task.trc
DataRate	CameraRate	NumFrames	NumMarkers	Units	OrigDataRate	OrigDataStartFrame	OrigNumFrames
100.000000	100.000000	4	53	mm	100.000000	253	406
Frame#	Time	C7			CLAV			LANK			LASI			LBHD			LELB			LFHD			LFIN			LFMH			LHEE			LKNE			LKNI			LMED			LMET			LMIF			LPSI			LSHO			LTAD			LTHAP			LTHI			LTIAD			LTIB			LTOE			LTTU			LWRA			LWRB			RANK			RASI			RBAK			RBHD			RELB			RFHD			RFIN			RFMH			RHEE			RKNE			RKNI			RMED			RMET			RMIF			RPSI			RSHO			RTAD			RTHAP			RTHI			RTIAD			RTIB			RTOE			RTTU			RWRA			RWRB			STRN			T10			
		X1	Y1	Z1	X2	Y2	Z2	X3	Y3	Z3	X4	Y4	Z4	X5	Y5	Z5	X6	Y6	Z6	X7	Y7	Z7	X8	Y8	Z8	X9	Y9	Z9	X10	Y10	Z10	X11	Y11	Z11	X12	Y12	Z12	X13	Y13	Z13	X14	Y14	Z14	X15	Y15	Z15	X16	Y16	Z16	X17	Y17	Z17	X18	Y18	Z18	X19	Y19	Z19	X20	Y20	Z20	X21	Y21	Z21	X22	Y22	Z22	X23	Y23	Z23	X24	Y24	Z24	X25	Y25	Z25	X26	Y26	Z26	X27	Y27	Z27	X28	Y28	Z28	X29	Y29	Z29	X30	Y30	Z30	X31	Y31	Z31	X32	Y32	Z32	X33	Y33	Z33	X34	Y34	Z34	X35	Y35	Z35	X36	Y36	Z36	X37	Y37	Z37	X38	Y38	Z38	X39	Y39	Z39	X40	Y40	Z40	X41	Y41	Z41	X42	Y42	Z42	X43	Y43	Z43	X44	Y44	Z44	X45	Y45	Z45	X46	Y46	Z46	X47	Y47	Z47	X48	Y48	Z48	X49	Y49	Z49	X50	Y50	Z50	X51	Y51	Z51	X52	Y52	Z52	X53	Y53	Z53	

254	2.53	1288.0419921875	1447.920043945312	-250.1230010986325	1389.969970703125	1349.078002929688	-250.9069976806637	1060.798950195312	238.1150054931641	-319.8380126953124	1362.764038085938	934.1069946289064	-369.5069885253904	1333.56298828125	1557.171997070312	-317.785003662109	1342.637939453125	1047.214965820312	-474.6730041503904	1471.489990234375	1626.06005859375	-282.4639892578122	1485.409057617188	799.7399902343751	-465.2499999999998	1098.85400390625	90.34600067138678	-272.4519958496094	1014.52197265625	257.9209899902344	-272.3890075683593	1359.43505859375	465.1109924316407	-386.907012939453	1393.969970703125	445.8479919433594	-276.459014892578	1093.967041015625	227.8190002441407	-246.7140045166015	1058.300048828125	114.7679977416993	-343.7200012207031	1102.404052734375	160.5650024414063	-305.7260131835937	1213.448974609375	952.7009887695314	-282.6549987792966	1319.286010742188	1376.260009765625	-421.1560058593747	1449.328002929688	522.8350219726564	-347.7640075683593	1432.625	700.4910278320314	-342.0820007324217	1341.448974609375	551.7930297851564	-430.1960144042968	1201.52294921875	276.7000122070313	-309.4800109863281	1218.676025390625	375.6470031738282	-411.2200012207031	1090.651977539062	99.79699707031257	-312.4309997558594	1359.107055664062	368.1250000000001	-339.6549987792968	1484.370971679688	849.7949829101564	-424.3859863281248	1440.81201171875	831.2949829101564	-474.9830017089842	1361.114013671875	70.65299987792973	-181.4989929199218	1394.411010742188	957.1820068359375	-129.0140075683592	1228.536987304688	1328.2080078125	-125.8379974365231	1322.785034179688	1529.214965820312	-160.4570007324215	1234.296997070312	1071.35302734375	-16.4829998016355	1458.838989257812	1601.444946289062	-160.5010070800778	1337.248046875	784.7639770507812	20.24300003051775	1502.3349609375	36.79199981689459	-246.1060028076172	1302.818969726562	34.28200149536138	-214.4190063476562	1400.884033203125	473.8580017089844	-128.9969940185546	1388.822998046875	475.0559997558594	-248.2389984130858	1361.089965820312	90.43699645996099	-263.3080139160156	1462.362060546875	24.01099967956547	-152.5989990234375	1449.787963867188	67.18199920654301	-212.6000061035156	1227.0419921875	967.2760009765625	-179.7140045166013	1318.404052734375	1374.447021484375	-69.30599975585908	1456.837036132812	570.177001953125	-174.4839935302733	1453.839965820312	737.593994140625	-150.7749938964842	1396.843994140625	586.1939697265625	-68.10299682617175	1415.130004882812	262.2640075683594	-203.7120056152343	1368.97802734375	284.114990234375	-90.98500061035151	1494.697021484375	37.92599868774418	-200.27099609375	1440.131958007812	404.6669921875001	-190.7330017089843	1344.83203125	838.5059814453125	-27.56299972534161	1289.5849609375	826.9739990234375	15.33300018310565	1414.3740234375	1191.237060546875	-255.7310028076169	1206.277954101562	1149.9599609375	-243.7449951171872	
255	2.54	1297.885986328125	1448.970947265625	-250.3130035400387	1400.056030273438	1350.046997070312	-251.2030029296872	1085.368041992188	237.1380004882813	-321.2139892578124	1373.100952148438	935.8740234375001	-368.9909973144529	1344.2919921875	1558.06201171875	-318.2369995117184	1349.58203125	1048.150024414062	-474.1000061035154	1482.588989257812	1626.526977539062	-283.2160034179684	1485.191040039062	796.7739868164064	-466.6619873046873	1126.567016601562	90.00399780273443	-274.8609924316406	1037.931030273438	255.7660064697266	-273.9410095214843	1380.746948242188	467.9920043945314	-386.824005126953	1415.079956054688	449.3469848632813	-276.3179931640624	1118.10205078125	227.3249969482422	-247.8500061035156	1085.823974609375	114.4629974365235	-345.9179992675781	1129.058959960938	160.8999938964844	-307.4779968261718	1223.639038085938	954.3400268554689	-283.0929870605466	1328.733032226562	1377.279052734375	-421.2250061035153	1468.836059570312	527.4849853515626	-347.417999267578	1446.982055664062	704.5000000000001	-341.2810058593748	1360.322021484375	553.7700195312501	-430.0339965820311	1225.10205078125	277.6109924316407	-310.1350097656249	1242.123046875	376.300994873047	-412.0050048828124	1118.255004882812	99.91600036621101	-314.9920043945312	1381.942016601562	371.0100097656251	-339.6919860839843	1485.60498046875	846.3449707031251	-425.1960144042967	1441.621948242188	829.8209838867189	-476.0629882812498	1361.281005859375	70.73500061035161	-181.7599945068359	1404.365966796875	957.8779907226562	-128.5070037841795	1239.2939453125	1329.531982421875	-125.47200012207	1333.593994140625	1530.442016601562	-160.86799621582	1246.613037109375	1072.537963867188	-15.87300014495826	1469.9189453125	1602.180053710938	-161.2089996337887	1352.640014648438	787.1320190429688	20.72200012207049	1502.4169921875	36.60400009155279	-246.2429962158203	1302.876953125	34.47000122070317	-214.6179962158203	1404.41796875	473.5130004882813	-129.4320068359374	1391.473999023438	474.8880004882813	-248.6479949951171	1361.276000976562	90.4150009155274	-263.5530090332031	1462.366943359375	24.04800033569339	-152.6719970703125	1449.947021484375	67.10399627685551	-212.8829956054687	1237.06494140625	968.4359741210938	-180.0119934082029	1329.20703125	1375.93505859375	-69.47799682617158	1461.68701171875	568.8330078125	-175.0410003662108	1461.833984375	736.2760009765625	-150.615997314453	1401.93896484375	586.0910034179688	-68.57099914550768	1416.928955078125	261.9230041503907	-204.2160034179687	1371.067993164062	284.1019897460938	-91.25900268554682	1494.843017578125	37.83599853515629	-200.4100036621094	1442.857055664062	404.0599975585938	-191.4129943847655	1359.413940429688	840.7119750976562	-27.35000038146954	1304.381958007812	828.6170043945312	15.59799957275409	1424.202026367188	1192.305053710938	-255.7920074462888	1216.338989257812	1151.026977539062	-243.4279937744138	
256	2.55	1307.389038085938	1449.9189453125	-250.5939941406247	1410.115966796875	1350.942016601562	-251.5149993896481	1110.2900390625	235.0639953613282	-322.8359985351562	1383.5009765625	937.5839843750001	-368.4559936523435	1354.905029296875	1558.848999023438	-318.7520141601559	1356.35595703125	1049.030029296875	-473.6059875488279	1493.621948242188	1626.860961914062	-284.1010131835934	1484.739990234375	794.0159912109376	-468.0809936523436	1155.086059570312	89.00900268554693	-276.9280090332031	1061.592041015625	252.3939971923829	-275.7529907226562	1401.713012695312	470.811004638672	-386.7269897460936	1435.711059570312	452.9960021972657	-276.0960083007811	1142.493041992188	225.9440002441407	-249.1549987792968	1114.316040039062	113.1269989013673	-347.9639892578125	1156.14599609375	160.2619934082032	-309.1050109863281	1233.824951171875	956.0070190429689	-283.471008300781	1338.110961914062	1378.203002929688	-421.3039855957028	1488.037963867188	532.1950073242189	-346.9989929199218	1461.109985351562	708.3800048828126	-340.8649902343748	1379.154052734375	555.7100219726564	-430.0289916992186	1248.891967773438	277.9660034179688	-310.7420043945312	1265.673950195312	375.9100036621095	-413.0969848632812	1146.670043945312	99.11100006103523	-317.1809997558594	1404.60498046875	373.9280090332032	-339.5270080566406	1486.569946289062	843.0560302734376	-425.9979858398436	1442.1650390625	828.4520263671876	-477.0809936523436	1361.432006835938	70.81700134277348	-182.0189971923828	1414.235961914062	958.35400390625	-128.1119995117186	1250.008056640625	1330.72998046875	-125.1259994506833	1344.342041015625	1531.626953125	-161.3229980468747	1258.879028320312	1073.7099609375	-15.26700019836402	1480.952026367188	1602.8310546875	-162.035003662109	1368.038940429688	789.4959716796875	21.12400054931658	1502.495971679688	36.41899871826178	-246.3600006103516	1302.949951171875	34.69200134277349	-214.8269958496094	1407.571044921875	473.1669921875001	-129.7899932861327	1394.399047851562	474.7059936523438	-249.0079956054686	1361.448974609375	90.37799835205084	-263.7860107421875	1462.368041992188	24.08600044250492	-152.7409973144531	1450.150024414062	67.05699920654301	-213.1609954833984	1247.078002929688	969.406982421875	-180.1759948730466	1339.947021484375	1377.389038085938	-69.68699645996062	1466.31396484375	567.47900390625	-175.2599945068358	1469.661987304688	734.9400024414062	-150.2030029296873	1406.548950195312	585.948974609375	-68.97599792480456	1418.774047851562	261.6050109863282	-204.5130004882812	1372.590942382812	284.10400390625	-91.47899627685541	1494.987060546875	37.75299835205082	-200.5299987792969	1445.516967773438	403.4309997558594	-191.7969970703124	1374.131958007812	842.9979858398438	-27.12499999999981	1319.238037109375	830.31201171875	15.81900024414081	1434.0419921875	1193.246948242188	-255.8439941406247	1226.385986328125	1151.968017578125	-243.0630035400388	
257	2.56	1316.72802734375	1450.738037109375	-250.9349975585934	1420.161010742188	1351.734008789062	-251.8549957275387	1135.546020507812	231.968002319336	-324.6530151367187	1393.925048828125	939.1810302734376	-367.960998535156	1365.405029296875	1559.515014648438	-319.3229980468747	1362.985961914062	1049.806030273438	-473.2049865722654	1504.546997070312	1627.06005859375	-285.118011474609	1484.126953125	791.4249877929689	-469.4790039062498	1184.600952148438	87.47699737548834	-278.7009887695312	1085.5400390625	247.7339935302735	-277.8689880371093	1422.31298828125	473.519989013672	-386.6220092773436	1455.800048828125	456.7439880371094	-275.803985595703	1167.130004882812	223.7369995117188	-250.6549987792968	1143.926025390625	110.8150024414063	-349.9249877929688	1183.468994140625	158.6950073242188	-310.5499877929687	1243.989013671875	957.5939941406251	-283.8099975585935	1347.444946289062	1378.994995117188	-421.4020080566403	1506.886962890625	536.9089965820314	-346.5299987792968	1475.133056640625	712.1810302734376	-340.6719970703123	1397.926025390625	557.6480102539064	-430.188995361328	1272.946044921875	277.7919921875001	-311.3380126953124	1289.182006835938	374.7879943847657	-414.3519897460937	1176.090942382812	97.50299835205085	-319.0289916992188	1427.088989257812	376.8479919433594	-339.2009887695312	1487.31298828125	839.8980102539064	-426.7789916992186	1442.531982421875	827.1630249023439	-478.0520019531248	1361.577026367188	70.90200042724614	-182.2599945068359	1424.001953125	958.6110229492188	-127.824996948242	1260.694946289062	1331.781982421875	-124.8030014038083	1355.041015625	1532.75	-161.8130035400387	1271.08203125	1074.808959960938	-14.62899971008277	1491.93701171875	1603.391967773438	-162.9720001220699	1383.464965820312	791.802978515625	21.43000030517596	1502.569946289062	36.25000000000006	-246.4459991455078	1303.0419921875	34.93799972534185	-215.0379943847656	1410.490966796875	472.8540039062501	-130.042999267578	1397.666015625	474.5289916992188	-249.2910003662108	1361.5849609375	90.34100341796881	-263.9700012207031	1462.364990234375	24.11800003051761	-152.7969970703125	1450.363037109375	67.02700042724614	-213.4109954833984	1257.078002929688	970.1619873046875	-180.2579956054685	1350.64501953125	1378.7490234375	-69.92700195312469	1470.776000976562	566.2069702148438	-175.1950073242186	1477.31396484375	733.6829833984375	-149.7010040283201	1410.932983398438	585.81201171875	-69.29499816894518	1420.593994140625	261.3160095214844	-204.6230010986328	1373.803955078125	284.135986328125	-91.62100219726557	1495.119018554688	37.67699813842778	-200.6230010986328	1448.10498046875	402.8020019531251	-191.8899993896484	1388.923950195312	845.302001953125	-26.91699981689434	1334.157958984375	832.0009765625	16.01499938964862	1443.912963867188	1194.0439453125	-255.908996582031	1236.421020507812	1152.781982421875	-242.6629943847654	
